Screens 
 
http://bayimg.com/jaOkiaaDO

Seeding Time 24/7

Don't Forget To Say Thanks If You Like My Post



-=Media Info=-


Format : AVI
Format/Info : Audio Video Interleave
File size : 238 MiB
Duration : 31mn 13s
Overall bit rate : 1 065 Kbps

Video
ID : 0
Format : MPEG-4 Visual
Format settings, BVOP : 1
Format settings, QPel : No
Format settings, GMC : No warppoints
Format settings, Matrix : Default (H.263)
Muxing mode : Packed bitstream
Codec ID : DX50
Codec ID/Hint : DivX 5
Duration : 31mn 13s
Bit rate : 934 Kbps
Width : 712 pixels
Height : 400 pixels
Display aspect ratio : 16:9
Frame rate : 25.000 fps
Color space : YUV
Chroma subsampling : 40
Bit depth : 8 bits
Scan type : Progressive
Compression mode : Lossy
Bits/(Pixel*Frame) : 0.131
Stream size : 209 MiB (88%)
Writing library : DivX 6.8.5 (UTC 2009-08-20)

Audio
ID : 1
Format : MPEG Audio
Format version : Version 1
Format profile : Layer 3
Codec ID : 55
Codec ID/Hint : MP3
Duration : 31mn 9s
Bit rate mode : Constant
Bit rate : 128 Kbps
Channel(s) : 2 channels
Sampling rate : 44.1 KHz
Compression mode : Lossy
Stream size : 28.5 MiB (12%)
Alignment : Split accross interleaves
Interleave, duration : 501 ms (12.53 video frames)
Interleave, preload duration : 750 ms